<mxfile host="www.draw.io" modified="2019-12-17T02:40:45.036Z" agent="Mozilla/5.0 (Windows NT 10.0; Win64; x64) AppleWebKit/537.36 (KHTML, like Gecko) Chrome/79.0.3945.79 Safari/537.36" etag="P5kuyIx1AzpkjmxWOWHy" version="12.4.2" type="github" pages="1">
  <diagram id="PS6CkbCGK_Jx9P1KLLng" name="Page-1">
    <mxGraphModel dx="1422" dy="713" grid="1" gridSize="10" guides="1" tooltips="1" connect="1" arrows="1" fold="1" page="1" pageScale="1" pageWidth="827" pageHeight="1169" math="0" shadow="0">
      <root>
        <mxCell id="0"/>
        <mxCell id="1" parent="0"/>
        <mxCell id="pWyQKgAAWOfDp7dY90Hm-5" value="" style="rounded=0;whiteSpace=wrap;html=1;" parent="1" vertex="1">
          <mxGeometry x="200" y="370" width="390" height="310" as="geometry"/>
        </mxCell>
        <mxCell id="pWyQKgAAWOfDp7dY90Hm-6" value="" style="rounded=0;whiteSpace=wrap;html=1;" parent="1" vertex="1">
          <mxGeometry x="210" y="380" width="370" height="140" as="geometry"/>
        </mxCell>
        <mxCell id="pWyQKgAAWOfDp7dY90Hm-8" value="" style="rounded=0;whiteSpace=wrap;html=1;" parent="1" vertex="1">
          <mxGeometry x="210" y="530" width="370" height="140" as="geometry"/>
        </mxCell>
        <mxCell id="pWyQKgAAWOfDp7dY90Hm-9" value="Canvas Layer&amp;nbsp;" style="text;html=1;strokeColor=none;fillColor=none;align=center;verticalAlign=middle;whiteSpace=wrap;rounded=0;" parent="1" vertex="1">
          <mxGeometry x="220" y="390" width="90" height="20" as="geometry"/>
        </mxCell>
        <mxCell id="pWyQKgAAWOfDp7dY90Hm-11" value="Container Layer" style="text;html=1;" parent="1" vertex="1">
          <mxGeometry x="220" y="540" width="100" height="30" as="geometry"/>
        </mxCell>
      </root>
    </mxGraphModel>
  </diagram>
</mxfile>
